<svg width="24" height="24" viewBox="0 0 24 24" fill="none" xmlns="http://www.w3.org/2000/svg">
<g clip-path="url(#clip0_3_5498)">
<path d="M19.6799 15.0133L11.9999 7.06665L4.31995 15.0133C4.11131 15.2299 3.99726 15.5205 4.00288 15.8212C4.00851 16.1219 4.13335 16.408 4.34995 16.6166C4.56654 16.8253 4.85714 16.9393 5.15783 16.9337C5.45851 16.9281 5.74464 16.8032 5.95328 16.5866L11.9999 10.3266L18.0533 16.5866C18.2619 16.8032 18.548 16.9281 18.8487 16.9337C19.1494 16.9393 19.44 16.8253 19.6566 16.6166C19.8732 16.408 19.998 16.1219 20.0037 15.8212C20.0093 15.5205 19.8952 15.2299 19.6866 15.0133H19.6799Z" fill="black"/>
</g>
<defs>
<clipPath id="clip0_3_5498">
<rect width="24" height="24" fill="white"/>
</clipPath>
</defs>
</svg>
