<svg width="24" height="24" viewBox="0 0 24 24" fill="none" xmlns="http://www.w3.org/2000/svg">
<path d="M8.99035 19.677L16.937 11.997L8.99035 4.31702C8.77375 4.10838 8.48315 3.99433 8.18247 3.99995C7.88178 4.00558 7.59565 4.13042 7.38701 4.34702C7.17838 4.56361 7.06433 4.85421 7.06995 5.1549C7.07558 5.45558 7.20042 5.74171 7.41701 5.95035L13.677 11.997L7.41701 18.0503C7.20042 18.259 7.07558 18.5451 7.06995 18.8458C7.06433 19.1465 7.17838 19.4371 7.38701 19.6537C7.59565 19.8703 7.88178 19.9951 8.18247 20.0007C8.48315 20.0064 8.77375 19.8923 8.99035 19.6837V19.677Z" fill="black"/>
</svg>
