<svg width="24" height="24" viewBox="0 0 24 24" fill="none" xmlns="http://www.w3.org/2000/svg">
<path d="M4.32665 8.98717L12.0066 16.9338L19.6866 8.98717C19.8953 8.77058 20.0093 8.47998 20.0037 8.17929C19.9981 7.87861 19.8732 7.59248 19.6566 7.38384C19.4401 7.1752 19.1494 7.06115 18.8488 7.06678C18.5481 7.0724 18.2619 7.19725 18.0533 7.41384L12.0066 13.6738L5.95331 7.41384C5.74468 7.19725 5.45854 7.0724 5.15786 7.06678C4.85718 7.06115 4.56657 7.1752 4.34998 7.38384C4.13339 7.59248 4.00854 7.87861 4.00292 8.17929C3.99729 8.47998 4.11134 8.77058 4.31998 8.98717H4.32665Z" fill="#5A5A5A"/>
</svg>
