<svg width="24" height="24" viewBox="0 0 24 24" fill="none" xmlns="http://www.w3.org/2000/svg">
<path d="M15.0162 4.32372L7.06958 12.0037L15.0162 19.6837C15.2328 19.8924 15.5234 20.0064 15.8241 20.0008C16.1248 19.9952 16.4109 19.8703 16.6196 19.6537C16.8282 19.4371 16.9423 19.1465 16.9366 18.8458C16.931 18.5452 16.8062 18.259 16.5896 18.0504L10.3296 12.0037L16.5896 5.95038C16.8062 5.74175 16.931 5.45561 16.9366 5.15493C16.9423 4.85425 16.8282 4.56364 16.6196 4.34705C16.4109 4.13046 16.1248 4.00561 15.8241 3.99999C15.5234 3.99436 15.2328 4.10841 15.0162 4.31705V4.32372Z" fill="black"/>
</svg>
