<svg width="24" height="24" viewBox="0 0 24 24" fill="none" xmlns="http://www.w3.org/2000/svg">
<path d="M3.16812 14.3005H23.0773C23.2003 14.3022 23.3218 14.3282 23.4348 14.3769C23.5478 14.4256 23.6501 14.4961 23.7358 14.5844C23.8215 14.6726 23.8889 14.7769 23.9343 14.8913C23.9797 15.0057 24.002 15.1279 24.0001 15.2509C24.0019 15.3738 23.9794 15.4959 23.934 15.6101C23.8885 15.7243 23.821 15.8285 23.7353 15.9166C23.6496 16.0048 23.5474 16.0752 23.4345 16.1238C23.3216 16.1724 23.2002 16.1984 23.0773 16.2001H0.925321C0.0997212 16.2001 -0.310679 15.1717 0.276121 14.5753L6.65892 8.07609C6.74383 7.98875 6.8455 7.91946 6.95783 7.87237C7.07016 7.82527 7.19085 7.80134 7.31265 7.80202C7.43446 7.80269 7.55487 7.82795 7.66668 7.87628C7.77849 7.92461 7.87938 7.99502 7.96332 8.08329C8.13581 8.26462 8.23151 8.50563 8.23039 8.75589C8.22927 9.00616 8.13143 9.2463 7.95732 9.42609L3.16932 14.3017L3.16812 14.3005Z" fill="black"/>
</svg>
