<svg width="20" height="20" viewBox="0 0 20 20" fill="none" xmlns="http://www.w3.org/2000/svg">
<g clip-path="url(#clip0_602_22838)">
<path d="M3.9597 7.14139L3.91674 7.09694C3.85917 7.01868 3.82847 6.9232 3.83031 6.82498C3.83251 6.707 3.8815 6.59472 3.96649 6.51286C4.05148 6.43099 4.16551 6.38624 4.28349 6.38845C4.40147 6.39065 4.51375 6.43964 4.59562 6.52463L4.59629 6.52532L9.64073 11.742L10.0004 12.1139L10.3598 11.7418L15.3987 6.52512L15.3992 6.52463C15.481 6.43964 15.5933 6.39065 15.7113 6.38845C15.8293 6.38624 15.9433 6.43099 16.0283 6.51286C16.1133 6.59472 16.1623 6.707 16.1645 6.82498C16.1667 6.94285 16.122 7.05677 16.0403 7.14173C16.0402 7.14182 16.0401 7.1419 16.0401 7.14198L10.0002 13.3916L3.9597 7.14139Z" fill="#666666" stroke="#666666"/>
</g>
<defs>
<clipPath id="clip0_602_22838">
<rect width="20" height="20" fill="white" transform="translate(20 20) rotate(-180)"/>
</clipPath>
</defs>
</svg>
